<svg width="80" height="80" viewBox="0 0 80 80" fill="none" xmlns="http://www.w3.org/2000/svg">
<path fill-rule="evenodd" clip-rule="evenodd" d="M30 10C30.5138 10.0002 31.015 10.1587 31.4355 10.454C31.856 10.7492 32.1753 11.1668 32.35 11.65L50 60.18L57.65 39.14C57.8263 38.6587 58.1463 38.2432 58.5667 37.9499C58.987 37.6565 59.4874 37.4995 60 37.5H77.5C78.163 37.5 78.7989 37.7634 79.2678 38.2322C79.7366 38.7011 80 39.337 80 40C80 40.663 79.7366 41.2989 79.2678 41.7678C78.7989 42.2366 78.163 42.5 77.5 42.5H61.75L52.35 68.35C52.1748 68.8326 51.8553 69.2496 51.4349 69.5443C51.0144 69.839 50.5134 69.9971 50 69.9971C49.4866 69.9971 48.9856 69.839 48.5651 69.5443C48.1447 69.2496 47.8252 68.8326 47.65 68.35L30 19.82L22.35 40.855C22.1745 41.3372 21.8548 41.7538 21.4344 42.0481C21.014 42.3424 20.5132 42.5002 20 42.5H2.5C1.83696 42.5 1.20107 42.2366 0.732233 41.7678C0.263392 41.2989 0 40.663 0 40C0 39.337 0.263392 38.7011 0.732233 38.2322C1.20107 37.7634 1.83696 37.5 2.5 37.5H18.25L27.65 11.65C27.8247 11.1668 28.144 10.7492 28.5645 10.454C28.985 10.1587 29.4862 10.0002 30 10Z" fill="#333333"/>
</svg>
