<svg width="80" height="80" viewBox="0 0 80 80" fill="none" xmlns="http://www.w3.org/2000/svg">
<path d="M40 5C20.6719 5 5 20.6719 5 40C5 59.3281 20.6719 75 40 75C59.3281 75 75 59.3281 75 40C75 20.6719 59.3281 5 40 5ZM40 69.0625C23.9531 69.0625 10.9375 56.0469 10.9375 40C10.9375 23.9531 23.9531 10.9375 40 10.9375C56.0469 10.9375 69.0625 23.9531 69.0625 40C69.0625 56.0469 56.0469 69.0625 40 69.0625Z" fill="#333333"/>
<path d="M53.6484 49.8906L42.5078 41.8359V22.5C42.5078 22.1562 42.2266 21.875 41.8828 21.875H38.125C37.7813 21.875 37.5 22.1562 37.5 22.5V44.0156C37.5 44.2188 37.5937 44.4063 37.7578 44.5234L50.6797 53.9453C50.9609 54.1484 51.3516 54.0859 51.5547 53.8125L53.7891 50.7656C53.9922 50.4766 53.9297 50.0859 53.6484 49.8906V49.8906Z" fill="#333333"/>
</svg>
